<svg id="Logo_KLM_Skyteam_RDA_RGB" xmlns="http://www.w3.org/2000/svg" viewBox="0 0 307.2272 146.1142"><title>partner2</title><path d="M16.7591,145.6411c0,.0878-.06.1306-.1507.1306H13.4492c-.1117,0-.1663-.0565-.2609-.1725l-2.47-3.9055c-.0522-.0731-.0873-.1687-.2019-.1687l-1.6641.0225a.13.13,0,0,0-.1472.1462l.0161,3.8918a.1672.1672,0,0,1-.1863.1862H5.771c-.1083,0-.1673-.078-.1673-.2077V133.2694c0-.1453.0751-.2068.1673-.2068h5.4182c3.1,0,5.0242,1.1958,5.0242,3.9834a3.8467,3.8467,0,0,1-2.5189,3.9571c.8178,1.2368,3.0441,4.5414,3.0441,4.5414a.2079.2079,0,0,1,.02.0966M10.6464,134.75H8.8526a.1314.1314,0,0,0-.1472.1249v4.8818c0,.1082.0361.1453.1668.1453h1.5864c1.61,0,2.5634-.8408,2.5634-2.7076a2.1385,2.1385,0,0,0-2.3756-2.4444" transform="translate(-5.4532 -3.2392)" fill="#fff"/><path d="M23.2454,145.9737c-3.4753,0-5.53-1.8328-5.53-5.4348,0-3.9239,2.1858-5.6065,5.53-5.6065,3.3416,0,5.5114,1.6455,5.5114,5.6065,0,3.5864-2.0387,5.4348-5.5114,5.4348m0-9.3587c-1.7733,0-2.4117,1.0465-2.4117,3.9034,0,2.7115.691,3.7191,2.4117,3.7191,1.7541,0,2.394-1.0426,2.394-3.7191,0-2.8764-.64-3.9034-2.394-3.9034" transform="translate(-5.4532 -3.2392)" fill="#fff"/><path d="M38.7592,143.4329a14.2082,14.2082,0,0,1-3.0461,5.7918.5171.5171,0,0,1-.3316.1287H32.7977a.1419.1419,0,0,1-.1493-.1287.2568.2568,0,0,1,.042-.0888,9.23,9.23,0,0,0,2.2239-3.1769v-.0224a.1678.1678,0,0,0-.1717-.1649H33.024a.23.23,0,0,1-.2088-.1482l-3.3777-10.3722a.06.06,0,0,0-.02-.036c0-.079.097-.1122.1911-.1122h2.8179c.1287,0,.1883.0156.2223.13l2.6161,8.65a.2352.2352,0,0,0,.2048.1658h.0546a.1947.1947,0,0,0,.1892-.1511l2.2814-8.6652a.1843.1843,0,0,1,.1853-.13H40.89c.0917,0,.1492.0565.1492.1122v.036Z" transform="translate(-5.4532 -3.2392)" fill="#fff"/><path d="M51.7405,145.327c0,.1248-.0351.2175-.2253.2585a42.3547,42.3547,0,0,1-4.7833.4087c-2.9505,0-5.06-.8027-5.06-3.6606,0-2.8043,2.0551-3.4744,4.4282-3.4744a25.1882,25.1882,0,0,1,2.5418.202c0-1.6826-.6544-2.3506-2.8052-2.3506-.708,0-1.68.0741-2.4833.1306h-.0575c-.1307,0-.1678-.0565-.2019-.1648l-.1707-1.348v-.0409c0-.0722.0546-.1064.1473-.1512.9715-.1063,2.5974-.2215,3.7952-.2215,2.9671,0,4.8749,1.0661,4.8749,4.0537Zm-3.0626-4.5842c0-.1093-.0362-.1454-.19-.1454H47.0694c-1.4757,0-2.2561.3541-2.2561,1.6425,0,1.3822.8009,1.8093,2.2561,1.8093H48.472c.17,0,.2059-.0555.2059-.1872Z" transform="translate(-5.4532 -3.2392)" fill="#fff"/><path d="M57.2465,145.7717H54.5c-.1288,0-.1688-.0565-.1688-.192V131.6084c0-.1083.04-.1678.1688-.2039l2.7291-.1863c.13,0,.2067.0546.2067.1863V145.58c0,.1355-.0419.192-.1892.192" transform="translate(-5.4532 -3.2392)" fill="#fff"/><path d="M71.2949,145.7717H66.5858c-.3346,0-.4633-.1306-.4633-.4281V133.4352c0-.236.1287-.3726.4262-.3726h4.635c3.6781,0,6.537.7891,6.537,5.8893,0,5.4154-2.8969,6.82-6.4258,6.82M71.1837,134.75h-1.57c-.2945,0-.3911.0693-.3911.3863v8.6155c0,.2049.0966.2974.3.2974h1.4943c2.5594,0,3.36-1.7342,3.36-4.7987,0-3.5329-.9333-4.5-3.1933-4.5" transform="translate(-5.4532 -3.2392)" fill="#fff"/><path d="M89.7665,145.4518a38.507,38.507,0,0,1-4.82.4848c-3.3817,0-5.1949-1.0826-5.1949-4.4263v-6.2228c0-.1279.0595-.1844.1883-.1844h2.7271a.1653.1653,0,0,1,.1892.1658v6.3955c0,1.787.7287,2.3848,2.4482,2.3848a8.2458,8.2458,0,0,0,1.3978-.11.1812.1812,0,0,0,.1687-.1873v-8.4829c0-.1093.0566-.1658.2038-.1658h2.71a.1691.1691,0,0,1,.19.1844v9.904c0,.1648-.06.2214-.2079.26" transform="translate(-5.4532 -3.2392)" fill="#fff"/><path d="M98.4182,145.6031c-.0371.1121-.1141.1463-.2253.1852-.9149.0761-1.4368.11-2.1488.11-1.8883,0-2.8394-.8056-2.8394-2.8159v-6.1283c0-.1327-.0389-.1912-.1715-.1912H91.9173a.1737.1737,0,0,1-.1873-.1873v-1.307c0-.1093.0547-.1658.2039-.1658h1.0993c.1326,0,.1715-.0731.1715-.2067l.02-2.4638c0-.1112.0556-.1707.1853-.1922l2.733-.1658c.1239,0,.1639.04.1639.1873v2.6529c0,.1152.0546.1883.2038.1883h1.4563c.1541,0,.2077.0565.2077.1863v1.2865c0,.1161-.0536.1688-.1863.1688H96.51a.1871.1871,0,0,0-.2038.21v5.8084c0,1.01.45,1.2894,1.4748,1.2894h.6369a.1647.1647,0,0,1,.1658.1668v.0185Z" transform="translate(-5.4532 -3.2392)" fill="#fff"/><path d="M108.4938,145.7883c-.9119.0538-1.9059.2059-2.9495.2059-3.7757,0-5.98-1.5158-5.98-5.662,0-4.1825,2.3692-5.4174,5.8474-5.4174.989,0,1.9615.1152,2.77.1883.1463.0156.2009.0517.2009.2049l-.1834,1.27c-.0428.1327-.078.1853-.2272.1853l-1.83-.0185c-2.3341,0-3.4021.8408-3.4021,3.5123,0,2.5438.8222,3.7922,3.1777,3.7922h2.576c.1688,0,.2058.0362.2058.1678V145.58c0,.1355-.037.17-.2058.2086" transform="translate(-5.4532 -3.2392)" fill="#fff"/><path d="M120.9241,145.5855c0,.13-.0362.1862-.1659.1862h-2.7476c-.1307,0-.1844-.0565-.1844-.1862v-6.3888c0-1.87-.712-2.452-2.5428-2.452h-1.5713c-.1121,0-.1659.077-.1659.21v8.6311c0,.13-.0575.1862-.1891.1862h-2.7457c-.1307,0-.1649-.0565-.1649-.1862V131.6084c0-.1308.0546-.1678.1649-.1883l2.7271-.1853c.1326,0,.2077.0361.2077.1853v3.55c0,.0936.0352.1531.1659.1531h.06s1.5674-.1736,2.333-.1736c3.2315,0,4.8185,1.3441,4.8185,4.4847Z" transform="translate(-5.4532 -3.2392)" fill="#fff"/><path d="M140.7427,145.5445a.1756.1756,0,0,1,.0244.0927.1207.1207,0,0,1-.13.1345h-2.7087a.2451.2451,0,0,1-.2614-.2086l-.8817-3.9806a.1879.1879,0,0,0-.1873-.1326H132.376c-.13,0-.1668.0234-.2029.1326l-.8769,3.9806c-.02.1687-.0956.2086-.2438.2086h-2.5809c-.1093,0-.2019-.0545-.2019-.1686,0-.0176.0166-.04.0166-.0586l2.9144-12.3082a.2245.2245,0,0,1,.2253-.1688h6.1829a.3015.3015,0,0,1,.2605.1854l2.8978,12.2916Zm-5.4533-10.6657c0-.0956-.0927-.1288-.1873-.1288h-1.23c-.11,0-.1872.0332-.2057.1288l-1.0681,4.7588v.0439c0,.07.039.0917.1151.0917h3.5124c.0721,0,.1316-.0214.1316-.0741,0-.0176-.02-.039-.02-.0615Z" transform="translate(-5.4532 -3.2392)" fill="#fff"/><path d="M145.5708,133.1592c0,.13-.0429.1862-.1921.1862h-2.7428c-.1317,0-.1716-.0565-.1716-.1862v-1.5508c0-.1308.04-.1824.1716-.1824H145.36c.1492,0,.2106.0516.2106.1824Zm-.1921,12.6125h-2.7428c-.1122,0-.1716-.0565-.1716-.192V135.2875c0-.1327.04-.1844.1716-.1844H145.36c.1492,0,.2106.0517.2106.1658V145.58c0,.1355-.0429.192-.1921.192" transform="translate(-5.4532 -3.2392)" fill="#fff"/><path d="M153.7006,136.7447c-.8057.0185-1.3987.0751-2.2394.1307a.162.162,0,0,0-.1727.1678v8.5208c0,.1512-.0527.2077-.1834.2077h-2.731a.1677.1677,0,0,1-.1854-.1862v-9.905a.2229.2229,0,0,1,.1854-.2419c1.2729-.17,3.8693-.3745,5.3636-.4272a.1646.1646,0,0,1,.1707.1854v1.3811c0,.0985-.0761.1668-.2078.1668" transform="translate(-5.4532 -3.2392)" fill="#fff"/><path d="M158.5658,145.7717H155.82c-.1317,0-.17-.0565-.17-.192V131.6084c0-.1083.038-.1678.17-.2039l2.7253-.1863c.1326,0,.2067.0546.2067.1863V145.58c0,.1355-.037.192-.1863.192" transform="translate(-5.4532 -3.2392)" fill="#fff"/><path d="M164.5234,133.1592c0,.13-.039.1862-.1863.1862h-2.7437c-.1347,0-.1726-.0565-.1726-.1862v-1.5508c0-.1308.0379-.1824.1726-.1824h2.7252c.1483,0,.2048.0516.2048.1824Zm-.1863,12.6125h-2.7437c-.1161,0-.1726-.0565-.1726-.192V135.2875c0-.1327.0379-.1844.1726-.1844h2.7252c.1483,0,.2048.0517.2048.1658V145.58c0,.1355-.039.192-.1863.192" transform="translate(-5.4532 -3.2392)" fill="#fff"/><path d="M177.4364,145.7717h-2.7379c-.1365,0-.194-.0565-.194-.192v-6.4073c0-1.7138-.6506-2.4063-2.3713-2.4063h-1.7176c-.1121,0-.1707.0351-.1707.1834v8.63c0,.1355-.035.192-.1813.192h-2.7291c-.1337,0-.1864-.0565-.1864-.192v-9.8972c0-.15.0527-.2282.1629-.2282a40.8132,40.8132,0,0,1,5.3275-.5014c3.5105,0,4.9686,1.4173,4.9686,4.559V145.58c0,.1355-.0351.192-.1707.192" transform="translate(-5.4532 -3.2392)" fill="#fff"/><path d="M189.8676,141.3406h-6.8364c-.1122,0-.1688.02-.1688.1649,0,1.9819,1.0837,2.6033,3.2724,2.6033.6847,0,1.5109-.078,2.4287-.1736h.0576c.0692,0,.1258.0253.1258.15v.04l-.1834,1.4387c-.038.1512-.0917.1512-.2058.1854a25.0843,25.0843,0,0,1-3.1222.2448c-3.326,0-5.7156-1.2182-5.7156-5.547,0-3.7366,2.0346-5.5324,5.3255-5.5324,4.0722,0,5.2085,2.1508,5.2085,6.222,0,.1531-.0731.2038-.1863.2038m-5.0417-4.6525c-1.7021,0-2.0561,1.2719-2.0561,2.7867,0,.1677.0371.2029.1707.2029h3.7171c.1287,0,.2068-.0176.2068-.1854,0-1.5488-.3043-2.8042-2.0385-2.8042" transform="translate(-5.4532 -3.2392)" fill="#fff"/><path d="M194.7913,146.0108a20.5849,20.5849,0,0,1-3.1183-.26c-.1492-.0361-.2087-.0936-.2087-.2068V144.182c0-.1132.0595-.1659.2292-.1659.4848.0331,1.7011.1248,2.6686.1248,1.4553,0,2.3722-.2789,2.3722-1.27,0-2.219-5.2466-1.6036-5.2466-4.9892,0-2.1994,2.1673-3.0587,4.6876-3.0587a16.5266,16.5266,0,0,1,3.1935.353c.1121.0206.2243.0751.2243.1854l-.2243,1.2534c-.0195.0956-.0566.1482-.1474.1482h-.0379c-.634-.0361-1.7392-.1268-2.39-.1268-1.307,0-2.1693.1648-2.1693,1.1227,0,1.96,5.2281,1.2669,5.2281,4.7569,0,2.1693-1.6787,3.4948-5.0613,3.4948" transform="translate(-5.4532 -3.2392)" fill="#fff"/><polygon points="115.298 113.775 115.298 65.235 145.617 65.235 154.706 92.539 163.816 65.235 194.156 65.235 194.156 113.775 175.949 113.775 175.949 77.361 163.816 113.775 145.617 113.775 133.493 77.361 133.493 113.775 115.298 113.775" fill="#fff"/><polygon points="33.372 86.468 54.611 65.235 36.411 65.235 18.201 83.436 18.201 65.235 0 65.235 0 113.778 18.201 113.778 18.201 95.565 36.411 113.778 60.688 113.778 33.372 86.468" fill="#fff"/><polygon points="109.228 101.642 109.228 113.775 60.688 113.775 60.688 65.235 78.894 65.235 78.894 101.642 109.228 101.642" fill="#fff"/><polygon points="87.989 12.131 87.989 6.069 94.045 6.069 94.045 0 100.113 0 100.113 6.069 106.195 6.069 106.195 12.131 100.113 12.131 100.113 18.201 94.045 18.201 94.045 12.131 87.989 12.131" fill="#fff"/><path d="M66.1421,41.1685A10.6175,10.6175,0,1,0,55.5168,30.5421,10.6241,10.6241,0,0,0,66.1421,41.1685" transform="translate(-5.4532 -3.2392)" fill="#fff"/><path d="M90.411,41.1685A10.6175,10.6175,0,1,0,79.7923,30.5421,10.6182,10.6182,0,0,0,90.411,41.1685" transform="translate(-5.4532 -3.2392)" fill="#fff"/><path d="M114.6812,41.1685a10.6175,10.6175,0,1,0-10.6123-10.6264,10.6286,10.6286,0,0,0,10.6123,10.6264" transform="translate(-5.4532 -3.2392)" fill="#fff"/><path d="M138.9462,41.1685a10.6175,10.6175,0,1,0-10.61-10.6264,10.624,10.624,0,0,0,10.61,10.6264" transform="translate(-5.4532 -3.2392)" fill="#fff"/><rect x="60.6915" y="40.9581" width="72.8041" height="12.1345" fill="#fff"/><path d="M272.2156,144.2734a39.86,39.86,0,0,1-27.4429-9.1634l-.0476.0488a40.0746,40.0746,0,1,0,54.5709-58.68l-.041.0385a40.1475,40.1475,0,0,1-27.0394,67.7557" transform="translate(-5.4532 -3.2392)" fill="#fff"/><path d="M227.4009,120.5689c-1.3037.6826-1.6058,1.7484-.9925,3.42.5733,1.5144,1.4938,2.1842,2.52,1.7973.8216-.2945.9668-.9989.66-2.8141l-.1222-.711a7.1638,7.1638,0,0,1-.095-3.3039,2.31,2.31,0,0,1,1.4861-1.7034c1.8319-.68,3.5044.4834,4.4866,3.0391,1.0259,2.782.3971,4.8581-1.7715,5.7118l-.5091-1.3679c1.5029-.617,1.9219-2.0081,1.157-4.0289-.6184-1.6481-1.6288-2.3938-2.7473-1.9695-.8728.3188-1.0991,1.14-.82,3l.1042.788.1041.6839a6.0978,6.0978,0,0,1,.0874,2.4555,2.1939,2.1939,0,0,1-1.4154,1.54c-1.7265.6466-3.345-.3933-4.2077-2.7126-.9385-2.5171-.3586-4.3606,1.5659-5.177Z" transform="translate(-5.4532 -3.2392)" fill="#fff"/><polygon points="221.12 102.817 227.293 97.828 227.293 99.71 222.065 103.878 223.683 105.751 227.293 105.763 227.293 107.251 216.984 107.251 216.98 105.77 221.032 105.767 221.588 105.775 222.115 105.775 221.78 105.404 221.446 105.031 216.98 99.987 216.967 98.022 221.12 102.817" fill="#fff"/><path d="M231.471,90.1422l3.9466,1.4809-.5066,1.3987-3.9555-1.4939-7.1812,2.0068.6376-1.6982L228.8625,90.7l.5631-.1414a5.4934,5.4934,0,0,1,.7495-.1621,12.4589,12.4589,0,0,1-.7637-1.04l-2.6676-3.7615.6031-1.61Z" transform="translate(-5.4532 -3.2392)" fill="#fff"/><polygon points="233.408 68.051 231.172 70.689 237.567 76.167 235.96 78.049 229.572 72.568 227.321 75.191 225.89 73.938 231.948 66.826 233.408 68.051" fill="#fff"/><polygon points="247.556 58.554 242.281 61.492 243.334 63.434 248.194 60.73 249.049 62.275 244.199 64.973 245.445 67.203 250.809 64.201 251.746 65.872 244.206 70.075 239.173 61.022 246.628 56.874 247.556 58.554" fill="#fff"/><path d="M267.112,60.7823a14.7071,14.7071,0,0,1-1.0723-2.1314,16.1256,16.1256,0,0,1-.5,2.3359l-.46,1.9695,3.01-.4114Zm5.7773,5.447-2.6984.1337-1.2818-2.2676-4.1883.5771-.64,2.53-2.5737.6056,2.95-11.2488,2.557-.3459Z" transform="translate(-5.4532 -3.2392)" fill="#fff"/><path d="M289.3908,69.9073l-2.1444-.8754.8986-3.0609c.0849-.351.2417-.8434.43-1.4747.1786-.65.3509-1.1479.4666-1.5182.1389-.4139.2816-.8408.4217-1.2792l.2546-.7365c-.6082,1.0322-.8691,1.3884-1.4451,2.2279-.2468.3715-.4756.68-.6659.9372l-3.0057,4.0469-1.8768-.5322-.4783-4.9559a9,9,0,0,1-.0668-1.1094c-.03-.6544-.0412-1.1467-.0489-1.4823-.0077-.2841,0-.69.0129-1.2573l-.2905,1.2509c-.3317,1.35-.495,1.936-.9347,3.5546l-.914,3.3167-2.2818-.4126,2.7858-10.0608,3.47.74.387,4.808a20.0481,20.0481,0,0,1,.02,3.3939,15.89,15.89,0,0,1,1.022-1.6918c.3176-.4589.5772-.8548.8151-1.2136l2.8128-3.8413,3.26,1.1918Z" transform="translate(-5.4532 -3.2392)" fill="#fff"/><path d="M288.4433,103.2665c3.0237-1.9412,5.5357-2.9684,7.0668-2.8733.9192.0462,1.9952.3394,1.9669,1.4707-.027,1.157-1.139,2.0929-3.318,2.8373a19.2472,19.2472,0,0,1-7.9692.3175,23.7674,23.7674,0,0,1,2.2535-1.7522M246.49,106.0446c-1.8344-.1645-2.7279-.93-2.6855-2.3552,0-.1864.2172-4.7051,10.5726-5.0021a25.0525,25.0525,0,0,1,4.5045.2121c-.0823.0064-1.1878.9873-1.1878.9873l-.6518.5747c-2.55,2.22-6.8122,5.93-10.552,5.5832m22.7584-16.6378c-1.2649,1.0747-3.8077,3.4081-6.249,5.6565l-2.7666,2.56a36.4677,36.4677,0,0,0-6.6464-.74c-5.02-.113-9.6623,1.1854-11.8156,3.286a3.7213,3.7213,0,0,0-1.23,2.6238c0,2.4413,2.7652,3.73,3.6034,4.0675a12.0362,12.0362,0,0,0,12.1808-1.3267,65.0149,65.0149,0,0,0,6.9561-5.78c1.5787.3882,3.3644.9088,5.3043,1.5271l1.7625.5516c-2.3577,2.2369-4.7874,4.5933-7.032,6.4934l-.1864.153c-3.1124,2.6328-5.3763,4.5495-8.5837,5.1988a6.5858,6.5858,0,0,1-4.3685-.3869c-.0616.0011-.122.0861-.122.0861a8.1777,8.1777,0,0,0,6.5808,2.2818c2.8757-.1826,6.2427-1.9322,9.6892-5.05l4.6937-4.41,3.2782-3.1328c0,.02,6.4534,2.0491,6.4534,2.0491.05.0141.1248.0386.1248.0386-.0746,0-4.1138,3.8335-4.1138,3.8335l-3.5211,3.3669a66.7536,66.7536,0,0,1-7.68,6.5435c-3.4467,2.3474-6.4008,3.5482-8.9875,3.6678a8.683,8.683,0,0,1-4.8324-1.0517c-.0783-.0167-.1786.0682-.1786.0682,1.7046,1.5285,3.8141,3.3747,7.4987,3.3528,4.1588-.0412,7.8894-1.967,13.7593-7.1221,2.6612-2.35,5.3133-5.0008,7.6608-7.3226l4.3555-4.25a32.9449,32.9449,0,0,0,8.0964.9924c4.03.0181,7.5334-1.8615,7.6184-4.0817.0706-1.6249-1.2549-2.53-2.0545-3.0685a9.2391,9.2391,0,0,0-4.9276-1.55c-3.0364-.0616-6.2285,1.2111-9.5,3.7782l-2.1571,1.84c.0179-.01-.7893-.22-.7893-.22l-5.9085-1.8036c1.7818-1.5992,3.3154-2.9658,4.6859-4.1435a16.2,16.2,0,0,1,9.0324-4.0315c1.522-.0642,4.205.1273,5.2824.9347.041-.01.1273-.1144.1273-.1144a10.7072,10.7072,0,0,0-7.486-3.0057c-2.0517-.0463-5.3607.5309-9.4656,3.5957a69.8269,69.8269,0,0,0-6.1424,5.5434c0-.0206-2.9864-.9861-2.9864-.9861l-.7263-.2442-3.1432-1.0259c.08,0,1.8538-1.6635,1.8538-1.6635,2.1648-2.0454,4.2088-3.98,5.8159-5.2722,5.7837-4.669,9.3871-5.2334,11.8824-5.1923a10.7827,10.7827,0,0,1,6.41,1.8139c.06,0,.135-.108.135-.108-3.1419-2.9619-5.43-3.9325-9.3949-4.0649-3.4866-.099-7.6954,1.7612-11.8453,5.2451" transform="translate(-5.4532 -3.2392)" fill="#fff"/><path d="M293.7039,62.0666a1.7055,1.7055,0,1,1,.9937,2.1842,1.6882,1.6882,0,0,1-.9937-2.1842m2.8873,1.2419a1.4428,1.4428,0,1,0-1.9309.6351,1.4355,1.4355,0,0,0,1.9309-.6351m-.9744.5374-.27-.13-.135-1.0208-.27-.144-.3869.7675-.2276-.1144.8292-1.6636.7225.355c.2932.1478.55.3779.3768.7378-.1608.32-.4551.3342-.76.1942Zm-.2906-1.3858c.2134.1028.5631.3175.689.0527.0888-.1724-.1259-.3176-.3046-.4088l-.4422-.2147-.22.42Z" transform="translate(-5.4532 -3.2392)" fill="#fff"/></svg>