<svg data-name="Layer 1" xmlns="http://www.w3.org/2000/svg" viewBox="0 0 349.643 191.738"><path d="M313.694 100.747a5.506 5.506 0 1 1-5.505 5.505 5.503 5.503 0 0 1 5.505-5.505zm0 9.822a4.318 4.318 0 1 0-4.23-4.317 4.15 4.15 0 0 0 4.23 4.318zm-2.157-7.388h2.36c1.565 0 2.378.508 2.378 1.797a1.578 1.578 0 0 1-1.61 1.667l1.652 2.708h-1.36l-1.566-2.708h-.667v2.708h-1.188zm2.231 2.622c.636 0 1.23-.1 1.23-.941 0-.724-.71-.84-1.217-.84h-1.057v1.782zM177.263 13.508c-7.193-.23-12.875 1.18-18.424 5.662-14.24 11.504-34.124 44.07-52.563 82.185-22.219 45.926-34.804 62.95-43.623 64.524a30.853 30.853 0 0 1-1.687-10.473c0-43.005 29.008-98.405 29.008-111.166 0-5.285-2.935-11.535-6.803-15.403-3.352-3.353-6.655-5.229-11.186-5.229-18.44 0-61.22 19.395-67.432 15.98-.793-.436-1.121-.477-1.728.337A16.474 16.474 0 0 0 0 49.328c0 5.716 2.78 10.37 9.36 10.37 12.312 0 53.216-20.293 66.877-20.293 1.686 0 1.988.618 1.988 1.461 0 6.1-33.365 57.792-33.365 99.193 0 16.502 3.866 25.538 11.468 33.14 5.734 5.736 10.878 8.686 14.673 8.686 11.489 0 23.666-14.994 44.832-62.091 17.989-40.026 38.006-78.858 62.399-103.329 1.768-1.774 1.058-2.892-.97-2.957z" fill="#fff"/><path d="M347.838 116.915c-10.652-1.445-27.388-1.913-41.575-.878-1.053-12.938-5.86-29.053-6.102-37.895 2.135-4.913 3.376-8.684 3.376-10.335 0-1.361-.533-1.832-1.649-1.832-1.205 0-3.12.974-4.95 2.775-4.608 4.536-6.47 8.249-6.781 15.955-10.19 15.736-25.34 31.61-30.484 33.95.743-5.052 5.543-17.365 8.114-25.424a12.054 12.054 0 0 0 .615-4.001c-.085-3.572-4.127-6.353-5.753-9.533s-3.464-5.959-7.174-5.924c-11.85.112-34.345 23.994-33.984 39.342.147 6.287 6.305 13.466 11.78 13.413 4.074-.038 9.69-5.152 16.925-15.051-1.13 7.262-.05 11.37 3.683 15.027a10.429 10.429 0 0 0 6.753 3.282c7.707-.073 21.31-18.381 29.967-33.064.498 6.582 1.226 14.49 1.467 20.976-10.868 1.718-17.632 3.959-17.632 7.173 0 4.798 8.25 11.86 16.656 11.86a14.72 14.72 0 0 0 14.83-11.475 269.675 269.675 0 0 1 27.484 1.243c6.393.677 8.579.143 11.525-2.122a19.765 19.765 0 0 0 3.879-4.117c1.402-2.083 1.01-3.076-.97-3.345zm-98.236-16.445c-5.633 7.617-13.099 13.41-14.267 12.456-1.297-1.053 2.065-9.858 8.059-17.595 5.992-7.736 13.93-13.586 15.28-12.374 1.31 1.18-3.51 9.989-9.072 17.513zm38.887 29.796a5.976 5.976 0 0 1-4.666-2.643c-.44-.611-.286-1.09.365-1.209a73.182 73.182 0 0 1 7.826-.78c-.287 3.223-1.148 4.632-3.525 4.632z" fill="#fff"/><path d="M244.623 131.796c-9.016-.823-21.961 1.33-35.992 4.707 4.404-14.986 9-29.23 13.094-42.308a17.112 17.112 0 0 0 1.145-5.341c0-3.858-2.813-4.476-4.33-9.142-1.446-4.443-3.615-7.553-7.253-7.553-8.769 0-23.908 14.676-39.294 33.075-14.954 17.881-29.112 29.414-34.377 29.414-1.256 0-2.231-1.038-2.231-3.78 0-2.465.665-6.317 2.736-11.84 17.213.596 32.64-15.427 32.64-25.6 0-5.256-6.245-12.27-12.864-12.27-12.617 0-35.544 26.886-35.544 43.02 0 12.101 10.008 22.713 18.13 22.713 9.951 0 22.618-15.858 35.866-37.007a24.975 24.975 0 0 0-.984 6.593c0 8.155 6.127 15.853 11.862 15.853 4.22 0 10.222-6.14 16.336-16.281-3.763 9.38-6.909 17.4-9.507 24.254-30.535 8.48-61.618 19.798-66.429 17.465-.685-.331-1.044-.28-1.48.38a12.57 12.57 0 0 0-1.638 7.633c.602 6.976 4.633 9.626 14.158 7.221 9.762-2.464 29.256-10.558 50.169-18.385-4.305 12.45-5.874 19.35-5.874 23.923 0 5.377 3.393 9.903 9.21 12.704 1.68.809 2.827.772 3.205-1.236 2.658-14.071 6.071-27.919 9.769-41.287 12.648-4.376 25.038-8.109 35.375-9.926 2.847-.5 4.108-1.3 5.578-4.385.843-1.77.425-2.441-1.475-2.614zM159.12 90.561c1.995 1.368-8.077 18.463-17.982 21.529 6.195-12.322 16.178-22.767 17.982-21.529zm29.063 27.321c-1.617-1.12 1.913-11.58 8.658-21.024s15.756-15.816 17.09-14.673c1.573 1.35-3.148 10.906-9.388 20.07-6.319 9.277-14.898 16.639-16.36 15.627zM262.4 60.196l.04 1.16a2.316 2.316 0 0 1-2.356 2.262l-34.117 1.141a2.314 2.314 0 0 1-2.5-2.1l-.082-1.89-23.215 2.723a2.314 2.314 0 0 1-2.664-1.888l-6.343-54.693a2.316 2.316 0 0 1 2.16-2.448L227.225.527a2.317 2.317 0 0 1 2.666 1.888l.314 2.72 24.252-.804.233-2.376a2.314 2.314 0 0 1 2.625-1.942L291.3 3.25a2.314 2.314 0 0 1 2.211 2.402l-5.22 54.814a2.316 2.316 0 0 1-2.626 1.942zm-37.93-7.362a62.016 62.016 0 0 1-.946-7.554 21.049 21.049 0 0 1-5.649.97c-2.55.056-3.333-.96-3.938-3.704-1.179-4.705-3.094-22.628-3.16-32.587a33.825 33.825 0 0 1-8.65 1.083c2.115 10.096 5.064 32.611 5.492 43.901 4.876-.873 11.202-1.664 16.85-2.11zm30.734 3.591c-2.456-7.83-7.713-36.307-8.576-44.864a69.452 69.452 0 0 1-11.05.459c-.498 10.12-3.188 37.214-4.505 45.158a38.874 38.874 0 0 1 7.738-.301 29.11 29.11 0 0 1 .038-7.429c.37-1.84 1.518-2.351 3.531-2.446 2.211-.106 3.349.557 3.773 2.622.356 2.002.68 4.722.861 7.189a52.578 52.578 0 0 1 8.19-.388zm-10.767-18.249c.074 1.56-.346 2.296-2.1 2.38-1.69.08-2.31-.608-2.378-2.038a125.972 125.972 0 0 1 1.047-15.03c.216-.923.739-.883.975-.046a115.133 115.133 0 0 1 2.456 14.734zm17.926-2.672c.114 3.541-1.133 8.323-.155 11.687 1.062 3.894 4.176 6.158 8.32 6.56 5.893.572 10.26-3.32 10.938-10.312s-1.913-9.927-6.424-13.96c-4.096-3.6-4.68-6.337-4.346-9.77s1.68-5.196 3.105-5.057c2.524.244 2.254 5.055.915 12.116a40.93 40.93 0 0 1 7.175.827c.12-3.257.799-6.199.912-10.044.205-4.817-1.765-9.454-8.305-10.088-6.088-.591-10.214 2.865-11.013 11.09-.677 6.993 2.143 10.928 5.786 14.484 3.52 3.48 5.222 6.129 4.895 9.497-.232 2.396-1.308 4.056-2.798 3.912-2.915-.283-2.798-4.847-1.583-9.96a49.742 49.742 0 0 1-7.422-.982z" fill="#fff"/></svg>
