<svg id="Layer_1" data-name="Layer 1" xmlns="http://www.w3.org/2000/svg" viewBox="0 0 349.6429 191.738"><title>partner</title><path d="M320.2275,107.6946a5.5056,5.5056,0,1,1-5.5049,5.5053A5.5026,5.5026,0,0,1,320.2275,107.6946Zm0,9.8227a4.3178,4.3178,0,1,0-4.23-4.3174A4.15,4.15,0,0,0,320.2275,117.5173Zm-2.1572-7.3882h2.36c1.5655,0,2.378.5078,2.378,1.7964a1.5778,1.5778,0,0,1-1.6094,1.667l1.6514,2.708h-1.36l-1.5654-2.708h-.667v2.708H318.07Zm2.2314,2.6221c.6358,0,1.2305-.1011,1.2305-.9414,0-.7241-.71-.84-1.2178-.84h-1.0566v1.7817Z" transform="translate(-6.5337 -6.9478)" fill="#fff"/><path d="M183.7964,20.4558c-7.1929-.23-12.875,1.1792-18.4234,5.6616-14.24,11.5049-34.1245,44.0708-52.5635,82.1851-22.2187,45.9267-34.8037,62.9511-43.623,64.5244A30.8526,30.8526,0,0,1,67.5,162.3542c0-43.0049,29.0073-98.4057,29.0073-111.1665,0-5.2846-2.9341-11.5351-6.8022-15.4033-3.3521-3.3525-6.6553-5.2285-11.1866-5.2285-18.4394,0-61.22,19.3945-67.4316,15.98-.793-.4361-1.1216-.4771-1.7285.3374a16.474,16.474,0,0,0-2.8247,9.4023c0,5.7163,2.7793,10.3711,9.36,10.3711,12.3116,0,53.2163-20.2939,66.877-20.2939,1.6865,0,1.9883.6181,1.9883,1.4614,0,6.1-33.3653,57.7915-33.3653,99.1929,0,16.5019,3.8657,25.5381,11.4683,33.14,5.7339,5.7354,10.8779,8.6856,14.6728,8.6856,11.4888,0,23.6656-14.9942,44.8321-62.0909C140.3554,86.7156,160.373,47.884,184.7656,23.4128,186.5342,21.6389,185.8242,20.5207,183.7964,20.4558Z" transform="translate(-6.5337 -6.9478)" fill="#fff"/><path d="M354.372,123.863c-10.6523-1.4453-27.3886-1.9131-41.5752-.8779-1.0527-12.9385-5.8593-29.0537-6.1025-37.895,2.1358-4.9136,3.376-8.6841,3.376-10.335,0-1.3613-.5322-1.8325-1.6485-1.8325-1.205,0-3.121.9746-4.95,2.7754-4.6084,4.5356-6.47,8.2485-6.7813,15.9546-10.19,15.7358-25.3389,31.6108-30.4834,33.95.7422-5.0518,5.543-17.3653,8.1133-25.4239a12.0536,12.0536,0,0,0,.6152-4.0009c-.0849-3.5723-4.1269-6.3526-5.7529-9.5327s-3.4639-5.959-7.1738-5.9244c-11.8506.1123-34.3448,23.9942-33.9844,39.3418.1474,6.2871,6.3057,13.4659,11.78,13.4131,4.0742-.0381,9.6894-5.1514,16.9257-15.0508-1.1308,7.2618-.05,11.37,3.6827,15.0274a10.4288,10.4288,0,0,0,6.7529,3.2812c7.707-.0722,21.31-18.3808,29.9668-33.0634.498,6.582,1.2265,14.4892,1.4668,20.9755-10.8672,1.7178-17.6319,3.959-17.6319,7.1729,0,4.7988,8.25,11.8613,16.6563,11.8613a14.72,14.72,0,0,0,14.8291-11.4756,269.6749,269.6749,0,0,1,27.4853,1.2432c6.3926.6768,8.5782.1426,11.5245-2.1221a19.7654,19.7654,0,0,0,3.8789-4.1172C356.7441,125.1247,356.3525,124.1316,354.372,123.863Zm-98.2363-16.4453c-5.6328,7.6172-13.0986,13.4092-14.2666,12.4561-1.2969-1.0528,2.0645-9.8584,8.0586-17.5948,5.9922-7.7363,13.93-13.5864,15.2793-12.374C266.5185,91.0842,261.6972,99.8933,256.1357,107.4177Zm38.8867,29.7959a5.9764,5.9764,0,0,1-4.666-2.6426c-.4394-.6113-.2861-1.0908.3653-1.209a73.1818,73.1818,0,0,1,7.8261-.7793C298.2607,135.8044,297.3994,137.2136,295.0224,137.2136Z" transform="translate(-6.5337 -6.9478)" fill="#fff"/><path d="M251.1572,138.7439c-9.0166-.8233-21.9619,1.3291-35.9922,4.707,4.4033-14.9863,8.999-29.23,13.0938-42.3086a17.1123,17.1123,0,0,0,1.1445-5.3408c0-3.8574-2.8125-4.4756-4.33-9.1421-1.4453-4.4429-3.6142-7.5522-7.2529-7.5522-8.7686,0-23.9072,14.6752-39.294,33.0742-14.9536,17.8818-29.1113,29.414-34.3764,29.414-1.2559,0-2.2315-1.0381-2.2315-3.7793,0-2.4658.6656-6.3173,2.7364-11.84,17.2128.5957,32.64-15.4268,32.64-25.6006,0-5.2554-6.2456-12.269-12.8643-12.269-12.6167,0-35.5434,26.8852-35.5434,43.02,0,12.1006,10.0073,22.7119,18.13,22.7119,9.9506,0,22.6171-15.8574,35.8652-37.0068a24.9746,24.9746,0,0,0-.9834,6.5927c0,8.1553,6.1269,15.8536,11.8613,15.8536,4.2207,0,10.2227-6.14,16.336-16.2813-3.7627,9.38-6.9083,17.3994-9.5069,24.2539-30.5347,8.4805-61.6181,19.7979-66.4287,17.4649-.6846-.3311-1.0444-.28-1.4805.38a12.5709,12.5709,0,0,0-1.6372,7.6338c.6016,6.9756,4.6324,9.626,14.1573,7.2207,9.7627-2.4638,29.2568-10.5586,50.1694-18.3847-4.3047,12.4492-5.874,19.35-5.874,23.9228,0,5.377,3.3935,9.9024,9.2109,12.7041,1.6787.8086,2.8262.7715,3.2041-1.2363,2.6582-14.0713,6.0713-27.919,9.7686-41.2871,12.6484-4.376,25.038-8.1084,35.375-9.9258,2.8476-.5,4.1084-1.3008,5.5781-4.3848C253.4756,139.5876,253.0576,138.9167,251.1572,138.7439ZM165.6528,97.509c1.9951,1.3682-8.0771,18.4624-17.9824,21.5288C153.8662,106.7156,163.8486,96.2712,165.6528,97.509Zm29.063,27.3208c-1.6172-1.1191,1.9131-11.58,8.6582-21.0244S219.13,87.99,220.4629,89.1325c1.5742,1.35-3.1475,10.9063-9.3868,20.0694C204.7568,118.48,196.1777,125.8415,194.7158,124.83Z" transform="translate(-6.5337 -6.9478)" fill="#fff"/><path d="M268.9345,67.1438l.0391,1.16a2.3156,2.3156,0,0,1-2.3555,2.2617l-34.1172,1.1417a2.3139,2.3139,0,0,1-2.5-2.1l-.082-1.8906L206.7041,70.44A2.314,2.314,0,0,1,204.04,68.552l-6.3437-54.6934a2.3157,2.3157,0,0,1,2.16-2.4482l33.9024-3.9356a2.3172,2.3172,0,0,1,2.666,1.8882l.3144,2.72,24.252-.8042.2324-2.3759a2.3145,2.3145,0,0,1,2.625-1.9424l33.9863,3.2373a2.3144,2.3144,0,0,1,2.211,2.4023l-5.2207,54.8135a2.3156,2.3156,0,0,1-2.625,1.9424Zm-37.9316-7.3623a62.016,62.016,0,0,1-.9453-7.5533,21.049,21.049,0,0,1-5.6484.9693c-2.55.0566-3.3331-.96-3.9385-3.7036-1.1787-4.7051-3.0938-22.6284-3.1592-32.5869A33.8247,33.8247,0,0,1,208.66,17.99c2.1153,10.0957,5.0645,32.6108,5.4932,43.9009C219.0283,61.0178,225.3545,60.2263,231.0029,59.7815Zm30.7344,3.5913c-2.4551-7.8306-7.7129-36.3067-8.5752-44.8638a69.4521,69.4521,0,0,1-11.0508.4585c-.4971,10.12-3.1875,37.2139-4.5049,45.1582a38.8742,38.8742,0,0,1,7.7383-.3013,29.1093,29.1093,0,0,1,.0381-7.4282c.3691-1.8408,1.5176-2.3515,3.5312-2.4468,2.211-.1054,3.3487.5577,3.7725,2.6221.3564,2.002.6807,4.7227.8613,7.189A52.5776,52.5776,0,0,1,261.7373,63.3728Zm-10.7666-18.249c.0742,1.56-.3457,2.2963-2.1006,2.3793-1.69.08-2.3086-.6074-2.377-2.0371A125.972,125.972,0,0,1,247.54,30.4353c.2158-.9229.7383-.8823.9746-.0459A115.1327,115.1327,0,0,1,250.9707,45.1238Zm17.9258-2.6719c.1142,3.541-1.1329,8.3232-.1543,11.687,1.0615,3.8935,4.1757,6.1577,8.32,6.56,5.8926.5722,10.2588-3.3194,10.9375-10.3125s-1.9131-9.9263-6.4239-13.959c-4.0966-3.6006-4.68-6.3379-4.3466-9.77s1.6806-5.1968,3.1054-5.0581c2.5244.2446,2.2539,5.0551.9151,12.1162a40.93,40.93,0,0,1,7.1748.8271c.1211-3.2568.7988-6.1987.9121-10.0439.2051-4.8174-1.7647-9.4536-8.3047-10.0884-6.0879-.5908-10.2139,2.8657-11.0127,11.09-.6777,6.9937,2.1426,10.9283,5.7852,14.4849,3.5195,3.48,5.2226,6.1284,4.8955,9.4961-.2325,2.3965-1.3086,4.0566-2.7979,3.9121-2.915-.2827-2.7978-4.8467-1.583-9.959A49.7418,49.7418,0,0,1,268.8965,42.4519Z" transform="translate(-6.5337 -6.9478)" fill="#fff"/></svg>